<?xml version="1.0" encoding="utf-8"?>
<!-- Generator: Adobe Illustrator 22.1.0, SVG Export Plug-In . SVG Version: 6.00 Build 0)  -->
<svg version="1.1" id="Layer_1" xmlns="http://www.w3.org/2000/svg" xmlns:xlink="http://www.w3.org/1999/xlink" x="0px" y="0px"
	 viewBox="0 0 770.8 188.1" style="enable-background:new 0 0 770.8 188.1;" xml:space="preserve">
<style type="text/css">
	.st0{opacity:0.15;}
	.st1{fill:#4C35D7;}
	.st2{fill:#FFFFFF;}
	.st3{fill:none;stroke:#4C35D7;stroke-width:5;stroke-linecap:round;stroke-linejoin:round;stroke-miterlimit:10;}
	.st4{opacity:0.25;clip-path:url(#SVGID_2_);}
	.st5{opacity:0.55;}
	.st6{opacity:0.25;}
	.st7{fill:#F68D53;}
	.st8{fill:#E9E9E9;}
	.st9{fill:#5D7FC0;}
	.st10{fill:#28DD8B;}
	.st11{fill:#23C477;}
	.st12{fill:#FEFBFB;}
	.st13{fill:#F7F7FA;}
	.st14{fill:#3B2FB2;}
	.st15{opacity:0.3;fill:#28DD8B;}
	.st16{fill:#4C35D8;}
	.st17{fill:#232323;}
	.st18{fill:url(#XMLID_6_);}
	.st19{opacity:0.25;fill:#867FE5;}
	.st20{fill:url(#XMLID_15_);}
	.st21{fill:#4678DB;}
	.st22{fill:#EC4532;}
	.st23{fill:#374E84;}
	.st24{fill:#939393;}
	.st25{fill:#52D29A;}
	.st26{display:none;fill:#28DD8B;}
	.st27{display:none;fill:#4C35D7;}
	.st28{fill:#535E77;}
	.st29{fill:#666666;}
	.st30{fill:none;stroke:#EC4532;stroke-width:2;stroke-miterlimit:10;}
	.st31{fill:none;stroke:#374E84;stroke-width:2;stroke-miterlimit:10;}
	.st32{fill:none;stroke:#28DD8B;stroke-width:2;stroke-miterlimit:10;}
	.st33{fill:none;stroke:#4C35D7;stroke-width:2;stroke-miterlimit:10;}
	.st34{fill:none;stroke:#545F73;stroke-width:2;stroke-miterlimit:10;}
	.st35{fill:none;stroke:#666666;stroke-width:2;stroke-miterlimit:10;}
	.st36{fill:#FFFFFF;stroke:#000000;stroke-miterlimit:10;}
	.st37{fill:#E8E8E8;}
	.st38{fill:#467EDD;}
	.st39{fill:url(#SVGID_3_);}
	.st40{fill:#515C73;}
	.st41{fill:none;stroke:#515C73;stroke-width:2;stroke-miterlimit:10;}
	.st42{fill:none;stroke:#939393;stroke-width:2;stroke-miterlimit:10;}
	.st43{fill:#C9C9C9;}
	.st44{opacity:0.2;}
	.st45{fill:none;stroke:#939393;stroke-miterlimit:10;}
</style>
<g id="XMLID_52_">
	<g id="XMLID_55_">
		<g id="XMLID_67_">
			<g>
				<path id="XMLID_75_" class="st10" d="M104.1,185.8c-0.5,0.5-1.1,0.9-1.8,1.3c-4.4,2.4-9.9,0.7-12.2-3.7L17.7,48.8
					c-2.4-4.4-0.7-9.9,3.7-12.2c4.4-2.4,9.9-0.7,12.2,3.7L106,174.8C108,178.5,107.1,183,104.1,185.8z"/>
			</g>
		</g>
		<g id="XMLID_63_">
			<g>
				<path id="XMLID_76_" class="st10" d="M17,23.7c-0.5,0.5-1.1,0.9-1.8,1.3c-4.4,2.4-9.9,0.7-12.2-3.7l-1.9-3.3
					c-2.4-4.4-0.7-9.9,3.7-12.2C9.1,3.3,14.6,5,17,9.4l1.9,3.3C20.9,16.4,20,20.9,17,23.7z"/>
			</g>
		</g>
		<g id="XMLID_59_">
			<path id="XMLID_60_" class="st10" d="M126.3,150.3c-0.5,0.5-1.1,0.9-1.7,1.2c-4.3,2.5-9.9,0.9-12.3-3.4l-76-134.6
				c-2.5-4.3-0.9-9.9,3.4-12.3c4.3-2.5,9.9-0.9,12.3,3.4l76,134.6C130.1,142.9,129.3,147.5,126.3,150.3z"/>
		</g>
		<g id="XMLID_56_">
			<path id="XMLID_57_" class="st10" d="M144.5,183.2c-0.5,0.5-1.1,0.9-1.7,1.2c-4.3,2.5-9.9,0.9-12.3-3.4l-2.6-4.4
				c-2.5-4.3-0.9-9.9,3.4-12.3c4.3-2.5,9.9-0.9,12.3,3.4l2.6,4.4C148.4,175.8,147.5,180.4,144.5,183.2z"/>
		</g>
	</g>
	<path id="XMLID_54_" class="st2" d="M137.8,61.4c-2.6-4.1-8.2-5.5-14.3-4.2c-15.1-17.4-44-22.3-70.4-10.3
		c-26.2,11.9-41.5,36.5-38.8,59.2c-6.9,5.5-9.7,13.6-6.3,19c2.9,4.6,9.6,5.8,16.4,3.7C39.5,146,68.4,151,94.8,139
		c26.7-12.1,42.1-37.4,38.6-60.4C138.9,73.2,140.9,66.2,137.8,61.4z"/>
	<linearGradient id="XMLID_6_" gradientUnits="userSpaceOnUse" x1="12.9397" y1="104.3917" x2="128.1504" y2="82.9955">
		<stop  offset="0" style="stop-color:#4C35D8"/>
		<stop  offset="1" style="stop-color:#467EDD"/>
	</linearGradient>
	<path id="XMLID_53_" class="st18" d="M137.9,61.5c-2.6-4.1-8.2-5.5-14.3-4.2C108.5,39.9,79.6,35,53.2,47
		C27,58.9,11.7,83.5,14.4,106.2c-6.9,5.5-9.7,13.6-6.3,19c2.9,4.6,9.6,5.8,16.4,3.7c15.1,17.4,44,22.3,70.4,10.3
		c26.7-12.1,42.1-37.4,38.6-60.4C139,73.3,141,66.3,137.9,61.5z"/>
	<path class="st19" d="M53.1,46.9c-26.2,11.9-41.5,36.5-38.8,59.2c0,0,0,0,0,0c14,4.2,30.7,3.3,46.5-3.9
		C86.9,90.3,102,65.6,98.7,43.1c0.2-0.2,0.3-0.4,0.5-0.6C85.2,38.7,68.7,39.8,53.1,46.9z"/>
</g>
<g>
	<g>
		<path class="st21" d="M237.4,101.1c2.4,3.2,3.6,7.2,3.6,11.9c0,4.2-1.1,7.9-3.3,11c-2.2,3.2-5.4,5.6-9.5,7.3
			c-4.1,1.7-8.9,2.6-14.4,2.6h-28.9c-3,0-5.3-0.8-6.9-2.4c-1.6-1.6-2.4-3.9-2.4-6.9V66.6c0-3,0.8-5.3,2.4-6.9
			c1.6-1.6,3.9-2.4,6.9-2.4h27.9c8.1,0,14.5,1.8,19.2,5.4c4.8,3.6,7.1,8.4,7.1,14.5c0,3.9-1.1,7.4-3.2,10.4c-2.1,3-5,5.2-8.8,6.6
			C231.5,95.6,235,97.9,237.4,101.1z M195.1,87.5h14.3c3.8,0,6.5-0.6,8.3-1.7c1.7-1.2,2.6-3,2.6-5.5c0-2.7-0.9-4.6-2.6-5.9
			c-1.7-1.2-4.5-1.8-8.3-1.8h-14.3V87.5z M219.8,117c1.7-1.3,2.6-3.4,2.6-6.3c0-2.9-0.9-5-2.6-6.3c-1.7-1.3-4.6-1.9-8.5-1.9h-16.2
			v16.3h16.2C215.3,118.9,218.1,118.3,219.8,117z"/>
		<path class="st21" d="M251.8,69.3c-1.9-1.7-2.9-4-2.9-6.8c0-2.8,1-5.1,2.9-6.7c1.9-1.7,4.5-2.5,7.8-2.5c3.2,0,5.8,0.8,7.7,2.5
			c2,1.7,2.9,3.9,2.9,6.7c0,2.8-1,5.1-2.9,6.8c-1.9,1.7-4.5,2.6-7.8,2.6S253.7,71,251.8,69.3z M252.7,132.5
			c-1.9-1.5-2.8-3.7-2.8-6.7V88.4c0-3,0.9-5.2,2.8-6.7c1.8-1.5,4.2-2.2,6.9-2.2c2.8,0,5.1,0.7,6.9,2.2c1.8,1.5,2.8,3.7,2.8,6.7v37.4
			c0,3-0.9,5.2-2.8,6.7c-1.9,1.5-4.2,2.2-6.9,2.2C256.8,134.7,254.5,134,252.7,132.5z"/>
		<path class="st21" d="M328.1,118.8c1.1,1.3,1.6,3,1.6,5.1c0,2.9-1.4,5.1-4.2,6.6c-2.5,1.2-5.4,2.3-8.8,3.1s-6.5,1.3-9.3,1.3
			c-5.9,0-11.1-1.1-15.6-3.4c-4.4-2.2-7.8-5.5-10.2-9.7c-2.4-4.2-3.6-9.1-3.6-14.8c0-5.4,1.1-10.2,3.4-14.4c2.3-4.2,5.5-7.5,9.6-9.9
			c4.1-2.4,8.7-3.5,13.9-3.5c5,0,9.4,1.1,13.2,3.3c3.8,2.2,6.7,5.3,8.8,9.2c2.1,4,3.1,8.7,3.1,14c0,1.7-0.4,3-1.1,3.9
			c-0.8,0.9-1.9,1.4-3.3,1.4h-28.7c0.5,3.5,1.6,6,3.4,7.5c1.7,1.5,4.3,2.3,7.7,2.3c1.8,0,3.5-0.2,5-0.6c1.5-0.4,3.2-1,5.1-1.7
			c1.1-0.4,2.2-0.8,3.2-1.1c1.1-0.3,2-0.5,2.9-0.5C325.7,116.9,327,117.5,328.1,118.8z M299.3,94.7c-1.5,1.6-2.4,4-2.7,7.1h17.1
			c-0.4-6.4-3.2-9.6-8.3-9.6C302.8,92.3,300.8,93.1,299.3,94.7z"/>
		<path class="st21" d="M388.9,84.9c3.1,3.8,4.7,9.6,4.7,17.4v23.5c0,2.8-0.9,4.9-2.6,6.5c-1.7,1.6-4.1,2.4-7.1,2.4
			c-3,0-5.3-0.8-7.1-2.4c-1.7-1.6-2.6-3.8-2.6-6.5v-22.6c0-3.2-0.6-5.5-1.7-7c-1.1-1.5-2.8-2.2-5.1-2.2c-2.9,0-5.2,0.9-6.9,2.8
			c-1.7,1.8-2.6,4.3-2.6,7.5v21.5c0,2.8-0.9,4.9-2.6,6.5c-1.7,1.6-4.1,2.4-7.1,2.4c-3,0-5.3-0.8-7.1-2.4c-1.7-1.6-2.6-3.8-2.6-6.5
			V88.1c0-2.5,0.9-4.6,2.7-6.3c1.8-1.6,4.2-2.4,7.1-2.4c2.8,0,5,0.8,6.6,2.3c1.6,1.5,2.4,3.5,2.4,6c1.9-2.8,4.3-4.9,7.3-6.3
			c3-1.5,6.3-2.2,9.9-2.2C381.1,79.2,385.8,81.1,388.9,84.9z"/>
		<path class="st21" d="M443.6,80.8c1.4-0.9,3-1.3,4.6-1.3c2.4,0,4.5,0.8,6.4,2.4c1.8,1.6,2.8,3.5,2.8,5.8c0,1.2-0.3,2.4-0.9,3.6
			l-19,37.9c-0.9,1.8-2.1,3.2-3.8,4.2c-1.6,1-3.4,1.5-5.4,1.5c-2,0-3.8-0.5-5.4-1.5c-1.7-1-2.9-2.4-3.8-4.2l-19-37.9
			c-0.6-1.3-0.9-2.5-0.9-3.5c0-2.3,1-4.3,3-5.9c2-1.6,4.3-2.4,6.9-2.4c1.7,0,3.4,0.5,4.8,1.4c1.5,0.9,2.6,2.3,3.4,4.1l11.5,24.9
			l11.4-24.9C441.1,83.1,442.2,81.7,443.6,80.8z"/>
		<path class="st21" d="M509.8,118.8c1.1,1.3,1.6,3,1.6,5.1c0,2.9-1.4,5.1-4.2,6.6c-2.5,1.2-5.4,2.3-8.8,3.1s-6.5,1.3-9.3,1.3
			c-5.9,0-11.1-1.1-15.6-3.4c-4.4-2.2-7.8-5.5-10.2-9.7c-2.4-4.2-3.6-9.1-3.6-14.8c0-5.4,1.1-10.2,3.4-14.4c2.3-4.2,5.5-7.5,9.6-9.9
			c4.1-2.4,8.7-3.5,13.9-3.5c5,0,9.4,1.1,13.2,3.3c3.8,2.2,6.7,5.3,8.8,9.2c2.1,4,3.1,8.7,3.1,14c0,1.7-0.4,3-1.1,3.9
			c-0.8,0.9-1.9,1.4-3.3,1.4h-28.7c0.5,3.5,1.6,6,3.4,7.5c1.7,1.5,4.3,2.3,7.7,2.3c1.8,0,3.5-0.2,5-0.6c1.5-0.4,3.2-1,5.1-1.7
			c1.1-0.4,2.2-0.8,3.2-1.1c1.1-0.3,2-0.5,2.9-0.5C507.4,116.9,508.7,117.5,509.8,118.8z M481,94.7c-1.5,1.6-2.4,4-2.7,7.1h17.1
			c-0.4-6.4-3.2-9.6-8.3-9.6C484.5,92.3,482.5,93.1,481,94.7z"/>
		<path class="st21" d="M570.6,84.9c3.1,3.8,4.7,9.6,4.7,17.4v23.5c0,2.8-0.9,4.9-2.6,6.5c-1.7,1.6-4.1,2.4-7.1,2.4
			c-3,0-5.3-0.8-7.1-2.4c-1.7-1.6-2.6-3.8-2.6-6.5v-22.6c0-3.2-0.6-5.5-1.7-7c-1.1-1.5-2.8-2.2-5.1-2.2c-2.9,0-5.2,0.9-6.9,2.8
			c-1.7,1.8-2.6,4.3-2.6,7.5v21.5c0,2.8-0.9,4.9-2.6,6.5c-1.7,1.6-4.1,2.4-7.1,2.4c-3,0-5.3-0.8-7.1-2.4c-1.7-1.6-2.6-3.8-2.6-6.5
			V88.1c0-2.5,0.9-4.6,2.7-6.3c1.8-1.6,4.2-2.4,7.1-2.4c2.8,0,5,0.8,6.6,2.3c1.6,1.5,2.4,3.5,2.4,6c1.9-2.8,4.3-4.9,7.3-6.3
			c3-1.5,6.3-2.2,9.9-2.2C562.8,79.2,567.5,81.1,570.6,84.9z"/>
		<path class="st21" d="M588.1,69.3c-1.9-1.7-2.9-4-2.9-6.8c0-2.8,1-5.1,2.9-6.7c1.9-1.7,4.5-2.5,7.8-2.5c3.2,0,5.8,0.8,7.7,2.5
			c2,1.7,2.9,3.9,2.9,6.7c0,2.8-1,5.1-2.9,6.8c-1.9,1.7-4.5,2.6-7.8,2.6C592.6,71.8,590,71,588.1,69.3z M589,132.5
			c-1.8-1.5-2.8-3.7-2.8-6.7V88.4c0-3,0.9-5.2,2.8-6.7c1.8-1.5,4.2-2.2,6.9-2.2c2.8,0,5.1,0.7,6.9,2.2c1.8,1.5,2.8,3.7,2.8,6.7v37.4
			c0,3-0.9,5.2-2.8,6.7c-1.8,1.5-4.2,2.2-6.9,2.2C593.1,134.7,590.8,134,589,132.5z"/>
		<path class="st21" d="M670.7,59.3c1.8,1.6,2.8,3.7,2.8,6.3v60.3c0,2.8-0.9,4.9-2.6,6.5c-1.7,1.6-4.1,2.4-7,2.4
			c-2.7,0-4.9-0.7-6.6-2.1c-1.7-1.4-2.7-3.4-2.9-5.8c-1.5,2.5-3.8,4.5-6.7,6s-6.2,2.2-9.7,2.2c-4.6,0-8.7-1.2-12.2-3.5
			c-3.6-2.4-6.4-5.7-8.4-10c-2-4.3-3-9.2-3-14.7c0-5.5,1-10.4,3-14.5c2-4.2,4.8-7.4,8.4-9.6c3.6-2.2,7.7-3.4,12.3-3.4
			c3.4,0,6.5,0.7,9.4,2.1c2.9,1.4,5.1,3.2,6.7,5.5V65.2c0-2.5,0.9-4.6,2.6-6.1c1.7-1.5,4-2.3,6.9-2.3
			C666.5,56.8,668.8,57.6,670.7,59.3z M651.7,117c1.8-2.3,2.7-5.7,2.7-10c0-4.3-0.9-7.6-2.7-9.8c-1.8-2.3-4.4-3.4-7.8-3.4
			c-3.3,0-5.9,1.1-7.7,3.4c-1.8,2.2-2.7,5.5-2.7,9.7c0,4.4,0.9,7.7,2.8,10.1c1.8,2.4,4.4,3.6,7.7,3.6
			C647.3,120.5,649.9,119.3,651.7,117z"/>
		<path class="st21" d="M696.3,131.5c-4.5-2.3-7.9-5.5-10.3-9.7c-2.4-4.2-3.6-9.1-3.6-14.8c0-5.7,1.2-10.6,3.6-14.7
			c2.4-4.2,5.9-7.4,10.3-9.6c4.4-2.2,9.6-3.4,15.6-3.4c5.9,0,11.1,1.1,15.6,3.4c4.4,2.2,7.9,5.5,10.3,9.6c2.4,4.2,3.6,9.1,3.6,14.7
			c0,5.7-1.2,10.6-3.6,14.8c-2.4,4.2-5.9,7.5-10.3,9.7c-4.4,2.3-9.6,3.4-15.6,3.4C705.9,134.9,700.7,133.8,696.3,131.5z M722.1,107
			c0-9-3.4-13.5-10.3-13.5c-6.9,0-10.3,4.5-10.3,13.5c0,9,3.4,13.5,10.3,13.5C718.7,120.5,722.1,116,722.1,107z"/>
		<path class="st21" d="M755.3,107.2c-1.1-1-1.7-2.5-2-4.4L747.7,69c-0.1-0.4-0.1-1-0.1-1.7c0-3.3,1.1-5.8,3.3-7.7
			c2.2-1.8,5-2.8,8.3-2.8c3.4,0,6.2,0.9,8.4,2.8c2.2,1.9,3.3,4.5,3.3,7.7c0,0.7,0,1.3-0.1,1.7l-5.8,33.7c-0.2,1.9-0.9,3.3-1.9,4.4
			c-1.1,1-2.3,1.5-3.9,1.5S756.4,108.2,755.3,107.2z M751.6,131.7c-2-2-3-4.5-3-7.5c0-3,1-5.5,3-7.5c2-2,4.5-3,7.6-3
			c3,0,5.5,1,7.5,3c2,2,3,4.5,3,7.5c0,3-1,5.5-3,7.5c-2,2-4.5,3-7.5,3C756.2,134.7,753.6,133.7,751.6,131.7z"/>
	</g>
</g>
</svg>
